<svg width="160" height="160" viewBox="0 0 160 160" fill="none" xmlns="http://www.w3.org/2000/svg">
  <defs>
    <linearGradient id="gradient-simple" x1="0%" y1="0%" x2="100%" y2="100%">
      <stop offset="0%" style="stop-color:#EC4913;stop-opacity:1" />
      <stop offset="100%" style="stop-color:#FF6B9D;stop-opacity:1" />
    </linearGradient>
  </defs>
  
  <!-- Versión simplificada y limpia del TP -->
  <g transform="translate(10, 20)">
    <!-- T minimalista -->
    <rect x="0" y="0" width="60" height="15" rx="7.5" fill="url(#gradient-simple)"/>
    <rect x="22.5" y="0" width="15" height="100" rx="7.5" fill="url(#gradient-simple)"/>
    
    <!-- P conectado -->
    <path d="M 60 7.5 L 90 7.5 C 115 7.5 125 17.5 125 35 C 125 52.5 115 62.5 90 62.5 L 75 62.5 L 75 100 C 75 105 72.5 107.5 67.5 107.5 C 62.5 107.5 60 105 60 100 Z M 75 22.5 L 75 47.5 L 90 47.5 C 100 47.5 105 42.5 105 35 C 105 27.5 100 22.5 90 22.5 Z" fill="url(#gradient-simple)"/>
  </g>
</svg>
