<svg width="300" height="200" viewBox="0 0 300 200" fill="none" xmlns="http://www.w3.org/2000/svg">
  <defs>
    <linearGradient id="tapati-gradient" x1="0%" y1="0%" x2="100%" y2="100%">
      <stop offset="0%" style="stop-color:#EC4913;stop-opacity:1" />
      <stop offset="50%" style="stop-color:#FF8052;stop-opacity:1" />
      <stop offset="100%" style="stop-color:#FF6B9D;stop-opacity:1" />
    </linearGradient>
  </defs>
  
  <!-- Logo TP grande con gradiente (versión de la primera imagen) -->
  <g transform="translate(50, 30)">
    <!-- T redondeada -->
    <path d="M 0 0 L 80 0 C 90 0 90 5 90 15 L 90 20 L 60 20 L 60 120 C 60 130 55 135 45 135 L 35 135 C 25 135 20 130 20 120 L 20 20 L 0 20 C -5 20 -5 15 -5 10 C -5 5 -5 0 0 0 Z" fill="url(#tapati-gradient)" stroke="none"/>
    
    <!-- P conectada con curva suave -->
    <path d="M 90 10 L 120 10 C 170 10 190 30 190 60 C 190 90 170 110 120 110 L 100 110 L 100 120 C 100 130 95 135 85 135 C 75 135 70 130 70 120 L 70 20 C 70 15 75 10 80 10 L 90 10 Z M 100 40 L 100 80 L 120 80 C 145 80 155 70 155 60 C 155 50 145 40 120 40 L 100 40 Z" fill="url(#tapati-gradient)" stroke="none"/>
  </g>
  
  <!-- Texto "Ta' Pa' Ti" debajo -->
  <text x="150" y="180" font-family="Arial, sans-serif" font-size="32" font-weight="bold" text-anchor="middle" fill="url(#tapati-gradient)">Ta' Pa' Ti</text>
</svg>
