<svg width="200" height="140" viewBox="0 0 200 140" fill="none" xmlns="http://www.w3.org/2000/svg">
  <defs>
    <linearGradient id="gradient-v2" x1="0%" y1="0%" x2="100%" y2="100%">
      <stop offset="0%" style="stop-color:#EC4913;stop-opacity:1" />
      <stop offset="100%" style="stop-color:#FF6B9D;stop-opacity:1" />
    </linearGradient>
  </defs>
  
  <!-- Diseño TP conectado más moderno -->
  <g transform="translate(20, 20)">
    <!-- T con curva -->
    <path d="M 10 10 L 70 10 C 75 10 75 15 75 20 L 75 30 L 55 30 L 55 100 C 55 105 50 110 45 110 L 35 110 C 30 110 25 105 25 100 L 25 30 L 10 30 C 5 30 5 25 5 20 C 5 15 5 10 10 10 Z" fill="url(#gradient-v2)"/>
    
    <!-- P conectado con transición suave -->
    <path d="M 75 20 L 85 20 C 90 20 95 20 95 25 L 95 50 C 95 50 95 60 110 60 C 125 60 140 55 145 40 C 150 25 145 10 130 10 L 85 10 C 80 10 75 15 75 20 Z M 95 40 L 115 40 C 120 40 125 35 125 30 C 125 25 120 25 115 25 L 95 25 Z" fill="url(#gradient-v2)"/>
    
    <!-- Extensión P -->
    <path d="M 85 60 C 80 60 75 65 75 70 L 75 100 C 75 105 80 110 85 110 L 95 110 C 100 110 105 105 105 100 L 105 70 C 105 65 100 60 95 60 Z" fill="url(#gradient-v2)"/>
  </g>
</svg>
