<svg width="200" height="200" viewBox="0 0 200 200" fill="none" xmlns="http://www.w3.org/2000/svg">
  <!-- Logo TP en blanco para fondos oscuros -->
  <g transform="translate(30, 40)">
    <!-- T moderna -->
    <path d="M 5 5 L 60 5 C 65 5 70 10 70 15 L 70 20 L 50 20 L 50 100 C 50 110 45 115 37.5 115 C 30 115 25 110 25 100 L 25 20 L 5 20 C 0 20 0 15 0 10 C 0 5 0 5 5 5 Z" fill="white" stroke="none"/>
    
    <!-- P conectada -->
    <path d="M 70 10 L 90 10 C 125 10 140 25 140 50 C 140 75 125 90 90 90 L 80 90 L 80 100 C 80 110 75 115 67.5 115 C 60 115 55 110 55 100 L 55 15 C 55 10 60 5 65 5 L 70 10 Z M 80 30 L 80 70 L 90 70 C 110 70 120 60 120 50 C 120 40 110 30 90 30 L 80 30 Z" fill="white" stroke="none"/>
  </g>
</svg>
