<svg width="200" height="200" viewBox="0 0 200 200" fill="none" xmlns="http://www.w3.org/2000/svg">
  <defs>
    <linearGradient id="tapati-gradient-v2" x1="0%" y1="0%" x2="100%" y2="100%">
      <stop offset="0%" style="stop-color:#EC4913;stop-opacity:1" />
      <stop offset="50%" style="stop-color:#FF8052;stop-opacity:1" />
      <stop offset="100%" style="stop-color:#FF6B9D;stop-opacity:1" />
    </linearGradient>
  </defs>
  
  <!-- Logo TP compacto (versión de la segunda imagen - más pequeño y limpio) -->
  <g transform="translate(30, 40)">
    <!-- T moderna con bordes redondeados -->
    <path d="M 5 5 L 60 5 C 65 5 70 10 70 15 L 70 20 L 50 20 L 50 100 C 50 110 45 115 37.5 115 C 30 115 25 110 25 100 L 25 20 L 5 20 C 0 20 0 15 0 10 C 0 5 0 5 5 5 Z" fill="url(#tapati-gradient-v2)" stroke="none"/>
    
    <!-- P conectada de forma fluida -->
    <path d="M 70 10 L 90 10 C 125 10 140 25 140 50 C 140 75 125 90 90 90 L 80 90 L 80 100 C 80 110 75 115 67.5 115 C 60 115 55 110 55 100 L 55 15 C 55 10 60 5 65 5 L 70 10 Z M 80 30 L 80 70 L 90 70 C 110 70 120 60 120 50 C 120 40 110 30 90 30 L 80 30 Z" fill="url(#tapati-gradient-v2)" stroke="none"/>
  </g>
  
  <!-- Texto "Ta' Pa' Ti" más pequeño -->
  <text x="100" y="170" font-family="Arial, sans-serif" font-size="24" font-weight="bold" text-anchor="middle" fill="url(#tapati-gradient-v2)">Ta' Pa' Ti</text>
</svg>
