<svg width="200" height="200" viewBox="0 0 200 200" fill="none" xmlns="http://www.w3.org/2000/svg">
  <defs>
    <linearGradient id="logoGradientFinal" x1="0%" y1="0%" x2="100%" y2="100%">
      <stop offset="0%" style="stop-color:#EC4913;stop-opacity:1" />
      <stop offset="50%" style="stop-color:#FF8052;stop-opacity:1" />
      <stop offset="100%" style="stop-color:#FF6B9D;stop-opacity:1" />
    </linearGradient>
  </defs>
  
  <!-- Logo TP basado en tu imagen -->
  <g transform="translate(20, 20)">
    <!-- T con bordes redondeados -->
    <path d="M 10 10 C 10 5 15 0 20 0 L 60 0 C 65 0 70 5 70 10 L 70 20 C 70 25 65 30 60 30 L 50 30 L 50 140 C 50 150 45 160 35 160 C 25 160 20 150 20 140 L 20 30 L 10 30 C 5 30 0 25 0 20 L 0 10 C 0 5 5 0 10 0 Z" fill="url(#logoGradientFinal)"/>
    
    <!-- P conectada con curva fluida -->
    <path d="M 70 15 L 90 15 C 130 15 150 35 150 70 C 150 105 130 125 90 125 L 80 125 L 80 140 C 80 150 75 160 65 160 C 55 160 50 150 50 140 L 50 25 C 50 20 55 15 60 15 L 70 15 Z M 80 45 L 80 95 L 90 95 C 110 95 120 85 120 70 C 120 55 110 45 90 45 L 80 45 Z" fill="url(#logoGradientFinal)"/>
  </g>
</svg>
