<svg width="200" height="200" viewBox="0 0 200 200" fill="none" xmlns="http://www.w3.org/2000/svg">
  <defs>
    <linearGradient id="gradient-v1" x1="0%" y1="0%" x2="100%" y2="100%">
      <stop offset="0%" style="stop-color:#EC4913;stop-opacity:1" />
      <stop offset="100%" style="stop-color:#FF6B9D;stop-opacity:1" />
    </linearGradient>
  </defs>
  
  <!-- Letra T -->
  <path d="M 40 50 L 100 50 L 100 70 L 80 70 L 80 150 L 60 150 L 60 70 L 40 70 Z" fill="url(#gradient-v1)"/>
  
  <!-- Letra P conectada -->
  <path d="M 90 70 L 110 70 L 110 90 C 110 90 110 110 130 110 C 150 110 160 100 160 80 C 160 60 150 50 130 50 L 110 50 L 110 70 L 130 70 C 135 70 140 75 140 80 C 140 85 135 90 130 90 C 120 90 110 95 110 110 L 110 150 L 90 150 Z" fill="url(#gradient-v1)"/>
</svg>
